<svg xmlns="http://www.w3.org/2000/svg" xmlns:xlink="http://www.w3.org/1999/xlink" width="20" height="20"><defs><path id="A" d="M0 0h20v17.344H0z"/></defs><g fill-rule="evenodd" transform="translate(0 1.328)"><mask id="B" fill="#fff"><use xlink:href="#A"/></mask><path fill="#161d1b" d="M19.99 4.012c-.089 1.952-1.45 4.624-4.081 8.016-2.721 3.543-5.023 5.315-6.906 5.315-1.166 0-2.154-1.079-2.96-3.237L4.428 8.173C3.829 6.016 3.187 4.936 2.5 4.936c-.15 0-.674.316-1.571.944l-.942-1.215 2.921-2.609C4.226.915 5.215.315 5.874.255c1.558-.15 2.516.917 2.876 3.2l.809 4.596c.449 2.044.943 3.064 1.483 3.064.419 0 1.048-.663 1.887-1.988s1.287-2.335 1.348-3.028c.119-1.144-.33-1.718-1.348-1.718-.479 0-.973.11-1.481.329.983-3.228 2.863-4.795 5.636-4.706 2.056.06 3.026 1.397 2.907 4.009" mask="url(#B)"/></g></svg>