<svg xmlns="http://www.w3.org/2000/svg" width="20" height="20"><path fill="#000" d="M18.443 0c.81 0 1.467.641 1.467 1.431v17.114c0 .79-.657 1.431-1.467 1.431H1.527c-.81 0-1.467-.641-1.467-1.43V1.431C.06.641.717 0 1.527 0h16.916zM6.077 7.701H3.079v9.02h2.998v-9.02zm7.36-.211c-1.54 0-2.258.82-2.663 1.43l-.039.058.001-1.276H7.737l.017 1.883v1.275.548l-.017 5.313h2.998v-5.037c0-.269.02-.539.099-.731.217-.539.71-1.097 1.538-1.097 1.085 0 1.519.827 1.519 2.04v4.825h2.998V11.55c0-2.77-1.479-4.06-3.451-4.06zM4.599 3.353c-1.026 0-1.696.673-1.696 1.559 0 .866.65 1.558 1.657 1.558h.019c1.046 0 1.696-.693 1.696-1.558-.02-.885-.651-1.559-1.676-1.559z"/></svg>
