<svg xmlns="http://www.w3.org/2000/svg" width="20" height="20" fill="#000" fill-rule="evenodd"><path fill-rule="nonzero" d="M13.906 0H6.15C3 0 .528 2.706.528 6v8c0 3.294 2.473 6 5.62 6h7.757c3.036 0 5.62-2.706 5.62-6V6c0-3.294-2.586-6-5.62-6zm3.7 14c0 2.235-1.686 4-3.7 4H6.15c-2.024 0-3.7-1.765-3.7-4V6c0-2.235 1.686-4 3.7-4h7.757c2.024 0 3.7 1.765 3.7 4v8zM9.972 4.824c-2.698 0-4.947 2.353-4.947 5.176s2.25 5.176 4.947 5.176S14.92 12.823 14.92 10s-2.25-5.176-4.947-5.176zm0 8.353c-1.686 0-3.036-1.412-3.036-3.176s1.35-3.176 3.036-3.176 3.035 1.4 3.035 3.175-1.35 3.176-3.036 3.176z"/><ellipse cx="14.75" cy="4.824" rx="1.222" ry="1.294"/></svg>
