<svg xmlns="http://www.w3.org/2000/svg" width="20" height="20"><path fill="#000" fill-rule="evenodd" d="M10.152.205C5.076.205.879 4.51.879 9.943c0 4.1 2.44 7.687 5.955 9.02-.098-.717-.195-1.947 0-2.767.195-.718 1.074-4.818 1.074-4.818s-.293-.615-.293-1.435c0-1.333.781-2.358 1.66-2.358s1.171.615 1.171 1.333c0 .82-.488 2.05-.683 3.28-.293.922.39 1.742 1.367 1.742 1.66 0 2.929-1.845 2.929-4.51 0-2.255-1.66-3.895-3.905-3.895-2.636 0-4.198 2.05-4.198 4.203 0 .82.293 1.742.683 2.255.098.103.098.103.098.205-.098.308-.293 1.025-.293 1.127 0 .205-.098.205-.293.103-1.171-.513-1.855-2.255-1.855-3.69 0-3.075 2.05-5.945 6.052-5.945 3.221 0 5.76 2.46 5.76 5.637 0 3.383-2.05 6.047-4.783 6.047-.976 0-1.855-.512-2.148-1.127l-.586 2.358c-.195.82-.781 1.845-1.171 2.563.879.205 1.757.41 2.733.41 5.174 0 9.274-4.407 9.274-9.737 0-5.433-4.1-9.737-9.274-9.737"/></svg>
