<svg xmlns="http://www.w3.org/2000/svg" width="180" height="18" fill="none"><path d="M13.5 7.125l-5-1.08c-1.39-.32-2.16-.65-2.16-1.53s.93-1.44 2.57-1.44a7.48 7.48 0 0 1 5.53 2.6h4.59V.735h-4.71v1.72A11.24 11.24 0 0 0 7.67.275C3.1.275.5 2.285.5 5.425c0 2.5 1.4 3.86 4.18 4.44l5.15 1.11c2 .42 3.09.76 3.09 2 0 1-.88 1.72-2.33 1.72a5.55 5.55 0 0 1-5.23-3.66H.78v6.19h4.78v-1.74a9.7 9.7 0 0 0 6.24 2.22c4.55 0 7.32-2.27 7.32-5.33s-1.88-4.45-5.62-5.25zM40.17.735h-8l-6 13.75h-2.88v2.74h10.35v-2.74h-2.92l1.35-3.12h7.43l1.44 3.12h-2.88v2.74h11.19v-2.74h-2.92L40.17.735zM33 9.225l2.73-6.41 2.82 6.41H33zm41.04 4.4l-.92-2.5a1.13 1.13 0 0 0-1.09-.74h-.72v-.66c3.17 0 5-1.84 5-4.4a4.13 4.13 0 0 0-2.29-3.87c-1.3-.69-3.34-.72-6.3-.72H53.14v2.72h3.36v11h-3.4v2.77h11.69v-2.74h-3.36v-4.44h4.07a2.57 2.57 0 0 1 2.45 1.86l1.73 3.83a2.36 2.36 0 0 0 2.45 1.49h5.37v-2.74h-2a1.33 1.33 0 0 1-1.46-.86zm-6.65-5.72h-6v-4.45h6c2.17 0 3.26.62 3.26 2.22 0 1.88-1.15 2.23-3.26 2.23zm13.95 1.54h4.71v-5.99h4.83v11.03h-3.39v2.73h11.79v-2.73h-3.44V3.455h4.84v5.99h4.71V.735H81.34v8.71zm38.97-9.22c-7.48 0-10.74 2.52-10.74 8.79s3.26 8.76 10.74 8.76 10.76-2.55 10.76-8.76-3.29-8.79-10.76-8.79zm0 15c-3.57 0-5-1.88-5-6.25s1.48-6.29 5-6.29 5.07 1.91 5.07 6.29-1.48 6.25-5.07 6.25zm35.9-1.6l-.93-2.5a1.13 1.13 0 0 0-1.08-.74h-.7v-.66c3.17 0 5-1.84 5-4.4.034-.796-.163-1.585-.568-2.272a4.13 4.13 0 0 0-1.712-1.598c-1.33-.69-3.37-.72-6.34-.72h-14.59v2.72h3.42v11h-3.42v2.77h11.67v-2.74h-3.36v-4.44h4.07a2.59 2.59 0 0 1 2.45 1.86l1.72 3.83c.19.482.532.889.974 1.158a2.37 2.37 0 0 0 1.476.332h5.33v-2.74h-2.06a1.31 1.31 0 0 1-1.35-.86zm-6.66-5.72h-6v-4.45h6c2.17 0 3.27.62 3.27 2.22 0 1.88-1.2 2.23-3.27 2.23zm25.73-4.45V.735H163.5v2.72h3.42v11.03h-3.42v2.73h11.78v-2.73h-3.41V3.455h3.41zm2.49 13.03h-.27v-1.62h.62c.39 0 .59.13.59.46a.42.42 0 0 1-.024.172.43.43 0 0 1-.235.246c-.054.022-.112.033-.171.032l.46.71h-.3l-.42-.7h-.25v.7zm.29-.92c.2 0 .38 0 .38-.26s-.19-.22-.35-.22h-.32v.48h.29z" fill="#000"/><circle cx="178" cy="15.725" r="1.375" stroke="#000" stroke-width=".25"/></svg>